<svg t="1739936354229" class="icon" viewBox="0 0 1024 1024" version="1.1" xmlns="http://www.w3.org/2000/svg" p-id="3954" width="16" height="16"><path d="M128 149.333333c11.946667 0 21.333333 9.386667 21.333333 21.333334v161.28C215.893333 198.826667 353.28 106.666667 512 106.666667c110.933333 0 214.613333 43.946667 291.84 123.733333 8.106667 8.533333 8.106667 22.186667-0.426667 30.293333-8.533333 8.106667-22.186667 8.106667-30.293333-0.426666A359.381333 359.381333 0 0 0 512 149.333333c-200.106667 0-362.666667 162.56-362.666667 362.666667 0 11.946667-9.386667 21.333333-21.333333 21.333333s-21.333333-9.386667-21.333333-21.333333V170.666667c0-11.946667 9.386667-21.333333 21.333333-21.333334zM260.266667 773.12A360.021333 360.021333 0 0 0 512 874.666667c200.106667 0 362.666667-162.56 362.666667-362.666667 0-11.946667 9.386667-21.333333 21.333333-21.333333s21.333333 9.386667 21.333333 21.333333v341.333333c0 11.946667-9.386667 21.333333-21.333333 21.333334s-21.333333-9.386667-21.333333-21.333334v-161.28c-66.56 133.546667-203.946667 225.28-362.666667 225.28-105.386667 0-205.653333-40.533333-281.6-113.92-8.533333-8.106667-8.533333-21.76-0.426667-30.293333 8.106667-8.106667 21.76-8.533333 30.293334 0z" fill="#666666" p-id="3955"></path></svg>